<?xml version="1.0" encoding="UTF-8"?>
<!DOCTYPE svg PUBLIC "-//W3C//DTD SVG 1.1//EN" "http://www.w3.org/Graphics/SVG/1.1/DTD/svg11.dtd">
<!-- Creator: CorelDRAW -->
<svg xmlns="http://www.w3.org/2000/svg" xml:space="preserve" width="3.5in" height="1in" version="1.1" style="shape-rendering:geometricPrecision; text-rendering:geometricPrecision; image-rendering:optimizeQuality; fill-rule:evenodd; clip-rule:evenodd"
viewBox="0 0 3500 1000"
 xmlns:xlink="http://www.w3.org/1999/xlink"
 xmlns:xodm="http://www.corel.com/coreldraw/odm/2003">
 <defs>
  <style type="text/css">
   <![CDATA[
    .fil0 {fill:gold}
   ]]>
  </style>
 </defs>
 <g id="Layer_x0020_1">
  <metadata id="CorelCorpID_0Corel-Layer"/>
  <g id="_2771414601776">
   <path class="fil0" d="M467.03 710.01c0,4.05 5.85,1.91 13.64,0.81 5.15,-0.73 10.28,-1.33 15.81,-2.15l80.5 -11.01c4.89,-0.71 12.46,-2.09 16.63,-2.19l-0.85 -212.09 94.93 0 0 136.83c0,22.36 0.85,41.81 0.85,64.14l108.47 -9.55c3.85,-0.4 11.45,-1.57 15.53,-1.57l0.85 -385.7c0,-18.64 0.86,-35.46 0.86,-54.73l-126.57 0 0 150.52 -94.93 0 0 -150.52 -125.72 0 0 477.2z"/>
   <path class="fil0" d="M2084.22 555.22c-15.11,0 -26.24,-0.86 -37.42,-12.18 -8.24,-8.34 -11.31,-13.41 -15.98,-25.07 -15.85,-39.62 -18.17,-151.33 17.25,-185.33 19.35,-18.57 56.13,-17.71 73.11,7.74 17.86,26.76 17.78,64.77 17.78,98.54 0,27.29 -2.77,54.97 -8.91,76.61 -5.93,20.87 -21.91,39.7 -45.82,39.7zm-13.68 93.22c32.89,0 50.47,-0.77 81.35,-11.86 36.44,-13.09 68.17,-41.02 89,-73.49 23.44,-36.54 34.04,-82.31 34.04,-129.31 0,-47.22 -11.2,-95.8 -39.09,-132.8l-11.14 -13.66c-4.22,-4.2 -7.79,-7.76 -11.98,-11.96 -7.84,-7.85 -18.36,-15.73 -28.06,-21.54 -36,-21.55 -65.82,-27 -111.55,-27 -29.23,0 -61.87,8.17 -81.24,17.95 -35.47,17.91 -56.64,38 -77.24,72.43 -14.83,24.78 -20.68,45.7 -26.17,73.03 -2.89,14.37 -3.04,30.31 -4.33,46.19 -0.39,4.77 0.81,6.14 0.87,11.01 0.34,27.61 3.64,48.22 12.47,74.76 6.33,19.04 21.57,48.77 36.44,63.62 4.35,4.34 7.16,8.83 12.13,12.67 17.17,13.26 16.83,17.07 43.83,30.58 19.99,10 51.13,19.38 80.67,19.38z"/>
   <path class="fil0" d="M885.22 628.77l0 38.48c12.84,0 41.17,-3.52 57.29,-4.28l230.91 -18.81c4.69,-0.07 5.58,-0.65 9.43,-0.83 4.31,-0.21 7,-0.8 10.25,-0.87l0 -95.78c0,-1.97 -0.59,-2.57 -2.57,-2.57l-182.16 0 0 -65.85 147.09 0c1.97,0 2.57,-0.59 2.57,-2.57l0 -88.94 -149.66 0 0 -59.01 184.72 0 0 -94.93 -308.73 0c0,132.87 0.85,263.09 0.85,395.96z"/>
   <path class="fil0" d="M2402.36 431.22l-2.24 2.89c-0.89,1.28 -1.37,2.08 -2,3.13l-28.84 46.42c-14.82,25.07 -34.37,53.76 -49.3,78.99 -12.37,20.93 -28.51,44.65 -41.05,65.85 -1.84,3.11 -7.57,11.3 -8.28,13.96 8.76,0.73 19.99,2.1 28.46,3.18 19.4,2.46 38.6,3.09 57.55,5.74l28.59 3.06c3.58,-5.35 6.13,-11.35 9.44,-17.07l38.16 -69.6c3.07,-6.05 27.73,-49.4 28.51,-52.74l1.71 0c0.81,3.48 2.39,4.99 3.99,7.98 1.75,3.24 2.88,5.47 4.52,8.31l62.19 113.13c2.84,5.74 5.97,10.65 8.78,16.02 2.79,5.35 9.71,4.57 19.74,5.06l133.34 10.33c2.7,0.2 3.09,0.74 6.04,0.8 -0.93,-3.48 -6.93,-11.93 -9.13,-15.67 -3.26,-5.51 -6.47,-10.46 -9.85,-15.81l-58.81 -95.13c-18.65,-30.96 -40.61,-64.52 -58.78,-95.16 -2.59,-4.37 -18.13,-28.14 -19.08,-32.23 17,-25.39 38.46,-61.15 55.42,-88.26 6.84,-10.94 62.62,-98.47 63.45,-101.6l-113.74 0c-7.3,13.79 -23.7,39.91 -32.55,54.69 -2.44,4.09 -30.57,52.78 -33.3,54.78 -1.27,-5.43 -61.25,-104.39 -62.43,-109.47l-147.09 0 126.57 198.41z"/>
   <path class="fil0" d="M3142.11 736.52c2.94,0.24 5.43,1.15 8.48,1.78l49.85 11.72c3.3,0.78 5.64,1.81 9.23,1.89l40.3 -129.03c3.24,-10.61 6.18,-21.21 9.82,-32.08l20.31 -65.21c10.87,-36.92 24.83,-77.45 35.12,-113.69l10.21 -32.55c1.8,-6.12 3.35,-10.41 5,-16.37 1.26,-4.57 3.27,-11.06 4.84,-15.69l35.17 -114.49 -103.48 0 -9.41 32.5c-17.53,63.3 -37.94,131.09 -56.55,194.89 -3.06,10.49 -6.78,21.77 -9.31,32.6 -1.87,-2.69 -19,-61.52 -19.78,-64.04l-28.61 -97.96c-3.2,-11.13 -5.9,-21.56 -9.44,-32.46l-19.14 -65.53 -132.56 0 29.83 94.18c13.65,40.58 26.37,85.06 39.96,125.94l40.22 125.69c3.61,11.06 6.38,20.89 10.04,31.86 7.04,21.11 13.15,42.22 20.09,62.86l19.78 63.18z"/>
   <polygon class="fil0" points="1241.85,642.45 1365,642.45 1365,489.37 1498.41,489.37 1498.41,397.01 1365,397.01 1365,331.16 1538.6,331.16 1538.6,232.81 1241.85,232.81 "/>
   <path class="fil0" d="M142.91 331.16l82.1 0c4.5,0 2.3,8.02 1.95,10.49l-0.2 205.05c-0.06,5.02 -0.94,7.03 -0.9,12.78 0.19,34.18 1.13,200.28 -0.85,204.41 4.8,0 10.33,-1.94 14.88,-3.08 5.42,-1.35 9.95,-2.5 15.06,-3.76l89.79 -23.09c0,-134.94 1.71,-267.71 1.71,-402.8l84.67 0 0 -98.35 -288.2 0 0 98.35z"/>
   <path class="fil0" d="M2674.31 331.16l84.67 0 0 350.63c4.15,0.09 10.19,1.31 14.56,1.69 28.63,2.47 59.39,6.98 88.04,9.46 4.37,0.38 10.41,1.59 14.56,1.69 0,-7.43 0.86,-13.09 0.85,-21.38 -0.01,-114.25 1.71,-227.87 1.71,-342.08l84.67 0 0 -98.35 -289.06 0 0 98.35z"/>
   <polygon class="fil0" points="1577.94,642.45 1865.29,642.45 1865.29,541.54 1704.51,541.54 1704.51,232.81 1577.94,232.81 "/>
  </g>
 </g>
</svg>
