<svg xmlns="http://www.w3.org/2000/svg" xmlns:xlink="http://www.w3.org/1999/xlink" width="500" zoomAndPan="magnify" viewBox="0 0 375 374.999991" height="500" preserveAspectRatio="xMidYMid meet" version="1.0"><defs><clipPath id="0d1024b3a1"><path d="M 70.492188 82.519531 L 286.429688 82.519531 L 286.429688 298.460938 L 70.492188 298.460938 Z M 70.492188 82.519531 " clip-rule="nonzero"/></clipPath><clipPath id="51a3edeb40"><path d="M 83.261719 173.058594 C 89.542969 180.613281 89.554688 200.65625 83.308594 208.238281 C 75.453125 217.773438 70.75 229.972656 70.75 243.230469 C 70.75 273.855469 95.558594 298.460938 125.847656 298.460938 C 139.179688 298.460938 151.378906 293.773438 160.90625 285.941406 C 168.507812 279.691406 188.671875 279.691406 196.273438 285.9375 C 205.804688 293.769531 218.003906 298.460938 231.335938 298.460938 C 261.628906 298.460938 286.429688 273.855469 286.429688 243.230469 C 286.429688 229.871094 281.578125 217.59375 273.59375 208.027344 C 267.320312 200.511719 267.320312 180.726562 273.585938 173.203125 C 281.578125 163.605469 286.429688 151.257812 286.429688 137.746094 C 286.429688 107.386719 261.628906 82.519531 231.335938 82.519531 C 218.121094 82.519531 206.0625 87.105469 196.582031 94.777344 C 188.867188 101.027344 167.933594 100.957031 160.214844 94.710938 C 150.789062 87.078125 138.761719 82.519531 125.585938 82.519531 C 95.292969 82.519531 70.492188 107.386719 70.492188 137.746094 C 70.492188 151.1875 75.296875 163.484375 83.261719 173.058594 Z M 83.261719 173.058594 " clip-rule="nonzero"/></clipPath><clipPath id="cbaa431973"><path d="M 0.492188 0.519531 L 216.429688 0.519531 L 216.429688 216.460938 L 0.492188 216.460938 Z M 0.492188 0.519531 " clip-rule="nonzero"/></clipPath><clipPath id="8052f5a409"><path d="M 13.261719 91.058594 C 19.542969 98.613281 19.554688 118.65625 13.308594 126.238281 C 5.453125 135.773438 0.75 147.972656 0.75 161.230469 C 0.75 191.855469 25.558594 216.460938 55.847656 216.460938 C 69.179688 216.460938 81.378906 211.773438 90.90625 203.941406 C 98.507812 197.691406 118.671875 197.691406 126.273438 203.9375 C 135.804688 211.769531 148.003906 216.460938 161.335938 216.460938 C 191.628906 216.460938 216.429688 191.855469 216.429688 161.230469 C 216.429688 147.871094 211.578125 135.59375 203.59375 126.027344 C 197.320312 118.511719 197.320312 98.726562 203.585938 91.203125 C 211.578125 81.605469 216.429688 69.257812 216.429688 55.746094 C 216.429688 25.386719 191.628906 0.519531 161.335938 0.519531 C 148.121094 0.519531 136.0625 5.105469 126.582031 12.777344 C 118.867188 19.027344 97.933594 18.957031 90.214844 12.710938 C 80.789062 5.078125 68.761719 0.519531 55.585938 0.519531 C 25.292969 0.519531 0.492188 25.386719 0.492188 55.746094 C 0.492188 69.1875 5.296875 81.484375 13.261719 91.058594 Z M 13.261719 91.058594 " clip-rule="nonzero"/></clipPath><clipPath id="b1b7f8f246"><rect x="0" width="217" y="0" height="217"/></clipPath><clipPath id="6ebd91a850"><path d="M 272.304688 37.5 L 337.5 37.5 L 337.5 102.695312 L 272.304688 102.695312 Z M 272.304688 37.5 " clip-rule="nonzero"/></clipPath><clipPath id="aeadec5126"><path d="M 304.902344 37.5 C 286.898438 37.5 272.304688 52.09375 272.304688 70.097656 C 272.304688 88.101562 286.898438 102.695312 304.902344 102.695312 C 322.90625 102.695312 337.5 88.101562 337.5 70.097656 C 337.5 52.09375 322.90625 37.5 304.902344 37.5 Z M 304.902344 37.5 " clip-rule="nonzero"/></clipPath><clipPath id="ce26fbae1a"><path d="M 0.304688 0.5 L 65.5 0.5 L 65.5 65.695312 L 0.304688 65.695312 Z M 0.304688 0.5 " clip-rule="nonzero"/></clipPath><clipPath id="55c259a540"><path d="M 32.902344 0.5 C 14.898438 0.5 0.304688 15.09375 0.304688 33.097656 C 0.304688 51.101562 14.898438 65.695312 32.902344 65.695312 C 50.90625 65.695312 65.5 51.101562 65.5 33.097656 C 65.5 15.09375 50.90625 0.5 32.902344 0.5 Z M 32.902344 0.5 " clip-rule="nonzero"/></clipPath><clipPath id="25d7e3b77c"><rect x="0" width="66" y="0" height="66"/></clipPath><clipPath id="f273061f63"><path d="M 40.75 289.460938 L 77.832031 289.460938 L 77.832031 326.542969 L 40.75 326.542969 Z M 40.75 289.460938 " clip-rule="nonzero"/></clipPath><clipPath id="2f5c4ff68a"><path d="M 59.289062 289.460938 C 49.050781 289.460938 40.75 297.761719 40.75 308 C 40.75 318.242188 49.050781 326.542969 59.289062 326.542969 C 69.53125 326.542969 77.832031 318.242188 77.832031 308 C 77.832031 297.761719 69.53125 289.460938 59.289062 289.460938 Z M 59.289062 289.460938 " clip-rule="nonzero"/></clipPath><clipPath id="b6915fd223"><path d="M 0.75 0.460938 L 37.832031 0.460938 L 37.832031 37.542969 L 0.75 37.542969 Z M 0.75 0.460938 " clip-rule="nonzero"/></clipPath><clipPath id="7967306f4a"><path d="M 19.289062 0.460938 C 9.050781 0.460938 0.75 8.761719 0.75 19 C 0.75 29.242188 9.050781 37.542969 19.289062 37.542969 C 29.53125 37.542969 37.832031 29.242188 37.832031 19 C 37.832031 8.761719 29.53125 0.460938 19.289062 0.460938 Z M 19.289062 0.460938 " clip-rule="nonzero"/></clipPath><clipPath id="ee2f6d4618"><rect x="0" width="38" y="0" height="38"/></clipPath></defs><g clip-path="url(#0d1024b3a1)"><g clip-path="url(#51a3edeb40)"><g transform="matrix(1, 0, 0, 1, 70, 82)"><g clip-path="url(#b1b7f8f246)"><g clip-path="url(#cbaa431973)"><g clip-path="url(#8052f5a409)"><path fill="#9999f6" d="M 0.492188 0.519531 L 216.429688 0.519531 L 216.429688 216.460938 L 0.492188 216.460938 Z M 0.492188 0.519531 " fill-opacity="1" fill-rule="nonzero"/></g></g></g></g></g></g><g clip-path="url(#6ebd91a850)"><g clip-path="url(#aeadec5126)"><g transform="matrix(1, 0, 0, 1, 272, 37)"><g clip-path="url(#25d7e3b77c)"><g clip-path="url(#ce26fbae1a)"><g clip-path="url(#55c259a540)"><path fill="#9999f6" d="M 0.304688 0.5 L 65.5 0.5 L 65.5 65.695312 L 0.304688 65.695312 Z M 0.304688 0.5 " fill-opacity="1" fill-rule="nonzero"/></g></g></g></g></g></g><g clip-path="url(#f273061f63)"><g clip-path="url(#2f5c4ff68a)"><g transform="matrix(1, 0, 0, 1, 40, 289)"><g clip-path="url(#ee2f6d4618)"><g clip-path="url(#b6915fd223)"><g clip-path="url(#7967306f4a)"><path fill="#9999f6" d="M 0.75 0.460938 L 37.832031 0.460938 L 37.832031 37.542969 L 0.75 37.542969 Z M 0.75 0.460938 " fill-opacity="1" fill-rule="nonzero"/></g></g></g></g></g></g></svg>