<svg xmlns="http://www.w3.org/2000/svg" xmlns:xlink="http://www.w3.org/1999/xlink" width="1500" zoomAndPan="magnify" viewBox="0 0 1125 374.999991" height="500" preserveAspectRatio="xMidYMid meet" version="1.0"><defs><g/><clipPath id="5cc853596a"><path d="M 28.753906 81.027344 L 237.535156 81.027344 L 237.535156 289.808594 L 28.753906 289.808594 Z M 28.753906 81.027344 " clip-rule="nonzero"/></clipPath><clipPath id="576e7c698d"><path d="M 41.101562 168.5625 C 47.175781 175.867188 47.1875 195.246094 41.148438 202.578125 C 33.554688 211.796875 29.003906 223.589844 29.003906 236.410156 C 29.003906 266.023438 52.992188 289.808594 82.277344 289.808594 C 95.164062 289.808594 106.960938 285.277344 116.175781 277.703125 C 123.523438 271.664062 143.019531 271.664062 150.371094 277.703125 C 159.582031 285.277344 171.378906 289.808594 184.269531 289.808594 C 213.558594 289.808594 237.535156 266.023438 237.535156 236.410156 C 237.535156 223.496094 232.847656 211.621094 225.125 202.375 C 219.058594 195.109375 219.058594 175.976562 225.117188 168.703125 C 232.84375 159.425781 237.535156 147.484375 237.535156 134.425781 C 237.535156 105.070312 213.558594 81.027344 184.269531 81.027344 C 171.492188 81.027344 159.832031 85.460938 150.667969 92.878906 C 143.207031 98.921875 122.964844 98.851562 115.503906 92.8125 C 106.390625 85.433594 94.765625 81.027344 82.023438 81.027344 C 52.734375 81.027344 28.753906 105.070312 28.753906 134.425781 C 28.753906 147.417969 33.402344 159.304688 41.101562 168.5625 Z M 41.101562 168.5625 " clip-rule="nonzero"/></clipPath><clipPath id="01b6164418"><path d="M 0.753906 0.0273438 L 209.535156 0.0273438 L 209.535156 208.808594 L 0.753906 208.808594 Z M 0.753906 0.0273438 " clip-rule="nonzero"/></clipPath><clipPath id="002de5d440"><path d="M 13.101562 87.5625 C 19.175781 94.867188 19.1875 114.246094 13.148438 121.578125 C 5.554688 130.796875 1.003906 142.589844 1.003906 155.410156 C 1.003906 185.023438 24.992188 208.808594 54.277344 208.808594 C 67.164062 208.808594 78.960938 204.277344 88.175781 196.703125 C 95.523438 190.664062 115.019531 190.664062 122.371094 196.703125 C 131.582031 204.277344 143.378906 208.808594 156.269531 208.808594 C 185.558594 208.808594 209.535156 185.023438 209.535156 155.410156 C 209.535156 142.496094 204.847656 130.621094 197.125 121.375 C 191.058594 114.109375 191.058594 94.976562 197.117188 87.703125 C 204.84375 78.425781 209.535156 66.484375 209.535156 53.425781 C 209.535156 24.070312 185.558594 0.0273438 156.269531 0.0273438 C 143.492188 0.0273438 131.832031 4.460938 122.667969 11.878906 C 115.207031 17.921875 94.964844 17.851562 87.503906 11.8125 C 78.390625 4.433594 66.765625 0.0273438 54.023438 0.0273438 C 24.734375 0.0273438 0.753906 24.070312 0.753906 53.425781 C 0.753906 66.417969 5.402344 78.304688 13.101562 87.5625 Z M 13.101562 87.5625 " clip-rule="nonzero"/></clipPath><clipPath id="f2f89e60d0"><rect x="0" width="210" y="0" height="209"/></clipPath><clipPath id="0955c53911"><path d="M 223.878906 37.5 L 286.914062 37.5 L 286.914062 100.53125 L 223.878906 100.53125 Z M 223.878906 37.5 " clip-rule="nonzero"/></clipPath><clipPath id="6d6c44c652"><path d="M 255.394531 37.5 C 237.992188 37.5 223.878906 51.609375 223.878906 69.015625 C 223.878906 86.421875 237.992188 100.53125 255.394531 100.53125 C 272.800781 100.53125 286.914062 86.421875 286.914062 69.015625 C 286.914062 51.609375 272.800781 37.5 255.394531 37.5 Z M 255.394531 37.5 " clip-rule="nonzero"/></clipPath><clipPath id="10e7d294fd"><path d="M 0.878906 0.5 L 63.914062 0.5 L 63.914062 63.53125 L 0.878906 63.53125 Z M 0.878906 0.5 " clip-rule="nonzero"/></clipPath><clipPath id="e6b338af34"><path d="M 32.394531 0.5 C 14.992188 0.5 0.878906 14.609375 0.878906 32.015625 C 0.878906 49.421875 14.992188 63.53125 32.394531 63.53125 C 49.800781 63.53125 63.914062 49.421875 63.914062 32.015625 C 63.914062 14.609375 49.800781 0.5 32.394531 0.5 Z M 32.394531 0.5 " clip-rule="nonzero"/></clipPath><clipPath id="aafa0ce0b1"><rect x="0" width="64" y="0" height="64"/></clipPath><clipPath id="5d4ef8cd74"><path d="M 0 281.109375 L 35.851562 281.109375 L 35.851562 316.960938 L 0 316.960938 Z M 0 281.109375 " clip-rule="nonzero"/></clipPath><clipPath id="66c4cea7c4"><path d="M 17.925781 281.109375 C 8.027344 281.109375 0 289.132812 0 299.035156 C 0 308.933594 8.027344 316.960938 17.925781 316.960938 C 27.828125 316.960938 35.851562 308.933594 35.851562 299.035156 C 35.851562 289.132812 27.828125 281.109375 17.925781 281.109375 Z M 17.925781 281.109375 " clip-rule="nonzero"/></clipPath><clipPath id="9d5596da07"><path d="M 0 0.109375 L 35.851562 0.109375 L 35.851562 35.960938 L 0 35.960938 Z M 0 0.109375 " clip-rule="nonzero"/></clipPath><clipPath id="fa19f56d66"><path d="M 17.925781 0.109375 C 8.027344 0.109375 0 8.132812 0 18.035156 C 0 27.933594 8.027344 35.960938 17.925781 35.960938 C 27.828125 35.960938 35.851562 27.933594 35.851562 18.035156 C 35.851562 8.132812 27.828125 0.109375 17.925781 0.109375 Z M 17.925781 0.109375 " clip-rule="nonzero"/></clipPath><clipPath id="7e7465bdc3"><rect x="0" width="36" y="0" height="36"/></clipPath><clipPath id="09ec01f6b2"><rect x="0" width="814" y="0" height="207"/></clipPath></defs><g clip-path="url(#5cc853596a)"><g clip-path="url(#576e7c698d)"><g transform="matrix(1, 0, 0, 1, 28, 81)"><g clip-path="url(#f2f89e60d0)"><g clip-path="url(#01b6164418)"><g clip-path="url(#002de5d440)"><path fill="#9999f6" d="M 0.753906 0.0273438 L 209.535156 0.0273438 L 209.535156 208.808594 L 0.753906 208.808594 Z M 0.753906 0.0273438 " fill-opacity="1" fill-rule="nonzero"/></g></g></g></g></g></g><g clip-path="url(#0955c53911)"><g clip-path="url(#6d6c44c652)"><g transform="matrix(1, 0, 0, 1, 223, 37)"><g clip-path="url(#aafa0ce0b1)"><g clip-path="url(#10e7d294fd)"><g clip-path="url(#e6b338af34)"><path fill="#9999f6" d="M 0.878906 0.5 L 63.914062 0.5 L 63.914062 63.53125 L 0.878906 63.53125 Z M 0.878906 0.5 " fill-opacity="1" fill-rule="nonzero"/></g></g></g></g></g></g><g clip-path="url(#5d4ef8cd74)"><g clip-path="url(#66c4cea7c4)"><g transform="matrix(1, 0, 0, 1, 0, 281)"><g clip-path="url(#7e7465bdc3)"><g clip-path="url(#9d5596da07)"><g clip-path="url(#fa19f56d66)"><path fill="#9999f6" d="M 0 0.109375 L 35.851562 0.109375 L 35.851562 35.960938 L 0 35.960938 Z M 0 0.109375 " fill-opacity="1" fill-rule="nonzero"/></g></g></g></g></g></g><g transform="matrix(1, 0, 0, 1, 287, 74)"><g clip-path="url(#09ec01f6b2)"><g fill="#9999f6" fill-opacity="1"><g transform="translate(2.684155, 183.983272)"><g><path d="M 85.1875 -33.765625 C 84.5 -31.941406 84.15625 -30.285156 84.15625 -28.796875 C 84.15625 -26.628906 84.867188 -24.882812 86.296875 -23.5625 C 87.734375 -22.25 89.707031 -21.59375 92.21875 -21.59375 C 96.5625 -21.59375 101.1875 -23.5625 106.09375 -27.5 C 111.007812 -31.445312 114.894531 -37.421875 117.75 -45.421875 L 149.984375 -135.75 C 151.578125 -140.09375 153.832031 -143.347656 156.75 -145.515625 C 159.664062 -147.691406 162.722656 -148.78125 165.921875 -148.78125 C 169.234375 -148.78125 172.203125 -147.691406 174.828125 -145.515625 C 177.460938 -143.347656 178.78125 -140.207031 178.78125 -136.09375 C 178.78125 -135.175781 178.691406 -134.144531 178.515625 -133 C 178.347656 -131.863281 178.035156 -130.664062 177.578125 -129.40625 L 145.359375 -39.9375 C 142.035156 -30.5625 137.289062 -22.929688 131.125 -17.046875 C 124.957031 -11.171875 118.269531 -6.859375 111.0625 -4.109375 C 103.863281 -1.367188 96.894531 0 90.15625 0 C 83.644531 0 77.789062 -1.195312 72.59375 -3.59375 C 67.394531 -6 63.304688 -9.316406 60.328125 -13.546875 C 56.109375 -9.316406 51.171875 -6 45.515625 -3.59375 C 39.859375 -1.195312 34.171875 0 28.453125 0 C 22.847656 0 17.757812 -1.140625 13.1875 -3.421875 C 8.625 -5.710938 5.023438 -8.914062 2.390625 -13.03125 C -0.234375 -17.144531 -1.546875 -21.882812 -1.546875 -27.25 C -1.546875 -29.082031 -1.398438 -30.941406 -1.109375 -32.828125 C -0.828125 -34.710938 -0.34375 -36.566406 0.34375 -38.390625 L 34.796875 -135.75 C 36.390625 -140.09375 38.644531 -143.347656 41.5625 -145.515625 C 44.476562 -147.691406 47.535156 -148.78125 50.734375 -148.78125 C 54.046875 -148.78125 57.046875 -147.664062 59.734375 -145.4375 C 62.421875 -143.207031 63.765625 -140.035156 63.765625 -135.921875 C 63.765625 -133.867188 63.363281 -131.695312 62.5625 -129.40625 L 28.625 -34.453125 C 28.28125 -33.535156 28.050781 -32.648438 27.9375 -31.796875 C 27.820312 -30.941406 27.765625 -30.113281 27.765625 -29.3125 C 27.765625 -27.363281 28.304688 -25.757812 29.390625 -24.5 C 30.484375 -23.25 32 -22.625 33.9375 -22.625 C 37.019531 -22.625 40.242188 -23.707031 43.609375 -25.875 C 46.984375 -28.050781 50.15625 -30.96875 53.125 -34.625 C 56.101562 -38.28125 58.394531 -42.335938 60 -46.796875 L 92.046875 -135.75 C 93.640625 -140.09375 95.894531 -143.347656 98.8125 -145.515625 C 101.726562 -147.691406 104.785156 -148.78125 107.984375 -148.78125 C 111.296875 -148.78125 114.265625 -147.691406 116.890625 -145.515625 C 119.523438 -143.347656 120.84375 -140.207031 120.84375 -136.09375 C 120.84375 -135.175781 120.753906 -134.144531 120.578125 -133 C 120.410156 -131.863281 120.097656 -130.664062 119.640625 -129.40625 Z M 85.1875 -33.765625 "/></g></g></g><g fill="#9999f6" fill-opacity="1"><g transform="translate(166.372705, 183.983272)"><g><path d="M 107.46875 -57.9375 C 109.988281 -57.9375 112.191406 -57.191406 114.078125 -55.703125 C 115.960938 -54.222656 116.90625 -51.992188 116.90625 -49.015625 C 116.90625 -47.535156 116.503906 -45.648438 115.703125 -43.359375 C 114.898438 -41.078125 113.867188 -38.28125 112.609375 -34.96875 C 108.953125 -25.707031 104.582031 -18.5625 99.5 -13.53125 C 94.414062 -8.507812 89.160156 -5 83.734375 -3 C 78.304688 -1 73.191406 0 68.390625 0 C 66.671875 0 64.351562 -0.226562 61.4375 -0.6875 C 58.53125 -1.144531 55.617188 -2.03125 52.703125 -3.34375 C 49.796875 -4.65625 47.425781 -6.625 45.59375 -9.25 C 42.394531 -6.394531 38.820312 -4.140625 34.875 -2.484375 C 30.9375 -0.828125 26.96875 0 22.96875 0 C 17.9375 0 13.421875 -1.171875 9.421875 -3.515625 C 5.421875 -5.859375 2.253906 -9 -0.078125 -12.9375 C -2.421875 -16.882812 -3.59375 -21.195312 -3.59375 -25.875 C -3.59375 -27.476562 -3.421875 -29.050781 -3.078125 -30.59375 C -2.742188 -32.132812 -2.347656 -33.648438 -1.890625 -35.140625 L 14.234375 -81.25 C 16.515625 -87.875 20.394531 -92.753906 25.875 -95.890625 C 31.363281 -99.035156 36.910156 -100.609375 42.515625 -100.609375 C 46.847656 -100.609375 50.644531 -100.09375 53.90625 -99.0625 C 57.164062 -98.039062 59.707031 -96.957031 61.53125 -95.8125 C 62.90625 -97.988281 64.734375 -99.617188 67.015625 -100.703125 C 69.304688 -101.785156 71.648438 -102.328125 74.046875 -102.328125 C 77.242188 -102.328125 80.128906 -101.351562 82.703125 -99.40625 C 85.273438 -97.46875 86.5625 -94.613281 86.5625 -90.84375 C 86.5625 -89.132812 86.21875 -87.25 85.53125 -85.1875 L 66.328125 -29.65625 C 65.765625 -27.59375 65.484375 -25.9375 65.484375 -24.6875 C 65.484375 -21.820312 67.023438 -20.390625 70.109375 -20.390625 C 72.734375 -20.390625 75.554688 -21.273438 78.578125 -23.046875 C 81.609375 -24.828125 84.609375 -27.769531 87.578125 -31.875 C 90.554688 -35.988281 93.128906 -41.535156 95.296875 -48.515625 C 96.328125 -51.828125 98.015625 -54.222656 100.359375 -55.703125 C 102.703125 -57.191406 105.070312 -57.9375 107.46875 -57.9375 Z M 50.90625 -59.65625 C 52.28125 -63.988281 52.96875 -67.359375 52.96875 -69.765625 C 52.96875 -72.734375 52.222656 -74.988281 50.734375 -76.53125 C 49.253906 -78.070312 47.710938 -78.84375 46.109375 -78.84375 C 44.734375 -78.84375 42.988281 -78.1875 40.875 -76.875 C 38.757812 -75.5625 36.90625 -72.273438 35.3125 -67.015625 L 24.34375 -32.5625 C 24.113281 -31.769531 23.882812 -30.882812 23.65625 -29.90625 C 23.425781 -28.9375 23.3125 -27.878906 23.3125 -26.734375 C 23.3125 -22.503906 25.195312 -20.390625 28.96875 -20.390625 C 30.789062 -20.390625 33.070312 -21.273438 35.8125 -23.046875 C 38.5625 -24.828125 40.851562 -28.515625 42.6875 -34.109375 Z M 50.90625 -59.65625 "/></g></g></g><g fill="#9999f6" fill-opacity="1"><g transform="translate(256.358543, 183.983272)"><g><path d="M 61.1875 -48.34375 C 62.21875 -51.082031 63.789062 -53.078125 65.90625 -54.328125 C 68.019531 -55.585938 70.160156 -56.21875 72.328125 -56.21875 C 74.960938 -56.21875 77.335938 -55.472656 79.453125 -53.984375 C 81.566406 -52.503906 82.625 -50.453125 82.625 -47.828125 C 82.625 -47.367188 82.566406 -46.820312 82.453125 -46.1875 C 82.335938 -45.5625 82.164062 -44.960938 81.9375 -44.390625 C 77.019531 -30.335938 70.191406 -19.425781 61.453125 -11.65625 C 52.710938 -3.882812 42.851562 0 31.875 0 C 26.050781 0 20.597656 -1.082031 15.515625 -3.25 C 10.429688 -5.425781 6.34375 -8.597656 3.25 -12.765625 C 0.164062 -16.941406 -1.375 -21.941406 -1.375 -27.765625 C -1.375 -31.304688 -0.6875 -35.132812 0.6875 -39.25 L 0.6875 -39.078125 L 15.078125 -80.390625 L 9.421875 -80.390625 C 7.140625 -80.390625 5.3125 -81.273438 3.9375 -83.046875 C 2.570312 -84.816406 1.890625 -86.898438 1.890625 -89.296875 C 1.890625 -92.046875 2.945312 -94.617188 5.0625 -97.015625 C 7.175781 -99.410156 10.515625 -100.609375 15.078125 -100.609375 L 22.28125 -100.609375 L 36 -138.84375 C 37.019531 -141.8125 38.644531 -144.207031 40.875 -146.03125 C 43.101562 -147.863281 45.648438 -148.78125 48.515625 -148.78125 C 52.285156 -148.78125 55.222656 -147.664062 57.328125 -145.4375 C 59.441406 -143.207031 60.5 -140.492188 60.5 -137.296875 C 60.5 -136.378906 60.332031 -135.296875 60 -134.046875 L 48.515625 -100.609375 L 56.21875 -100.609375 C 59.53125 -100.609375 61.929688 -99.78125 63.421875 -98.125 C 64.910156 -96.46875 65.65625 -94.5 65.65625 -92.21875 C 65.65625 -89.363281 64.507812 -86.675781 62.21875 -84.15625 C 59.9375 -81.644531 56.625 -80.390625 52.28125 -80.390625 L 41.140625 -80.390625 L 24.34375 -32.5625 C 24.226562 -31.988281 24.082031 -31.359375 23.90625 -30.671875 C 23.738281 -29.992188 23.65625 -29.367188 23.65625 -28.796875 C 23.65625 -26.515625 24.539062 -24.539062 26.3125 -22.875 C 28.082031 -21.21875 30.507812 -20.390625 33.59375 -20.390625 C 38.625 -20.390625 43.625 -22.703125 48.59375 -27.328125 C 53.5625 -31.960938 57.757812 -38.96875 61.1875 -48.34375 Z M 61.1875 -48.34375 "/></g></g></g><g fill="#9999f6" fill-opacity="1"><g transform="translate(312.4069, 183.983272)"><g><path d="M 82.953125 -50.90625 C 83.867188 -53.414062 85.269531 -55.210938 87.15625 -56.296875 C 89.039062 -57.390625 91.070312 -57.9375 93.25 -57.9375 C 95.875 -57.9375 98.300781 -57.132812 100.53125 -55.53125 C 102.757812 -53.9375 103.875 -51.765625 103.875 -49.015625 C 103.875 -47.765625 103.644531 -46.625 103.1875 -45.59375 C 99.53125 -35.195312 94.5 -26.625 88.09375 -19.875 C 81.695312 -13.132812 74.5 -8.132812 66.5 -4.875 C 58.5 -1.625 50.273438 0 41.828125 0 C 33.484375 0 26.109375 -1.453125 19.703125 -4.359375 C 13.304688 -7.273438 8.335938 -11.304688 4.796875 -16.453125 C 1.253906 -21.597656 -0.515625 -27.425781 -0.515625 -33.9375 C -0.515625 -37.820312 0.171875 -41.820312 1.546875 -45.9375 L 11.3125 -74.734375 C 13.363281 -80.785156 16.21875 -85.695312 19.875 -89.46875 C 23.539062 -93.238281 27.628906 -96.035156 32.140625 -97.859375 C 36.648438 -99.691406 41.132812 -100.609375 45.59375 -100.609375 C 50.507812 -100.609375 55.109375 -99.609375 59.390625 -97.609375 C 63.671875 -95.609375 67.125 -92.722656 69.75 -88.953125 C 72.382812 -85.179688 73.703125 -80.613281 73.703125 -75.25 C 73.703125 -73.300781 73.53125 -71.269531 73.1875 -69.15625 C 72.84375 -67.039062 72.21875 -64.84375 71.3125 -62.5625 C 69.820312 -58.675781 67.847656 -55.875 65.390625 -54.15625 C 62.929688 -52.445312 60.445312 -51.59375 57.9375 -51.59375 C 54.96875 -51.59375 52.28125 -52.617188 49.875 -54.671875 C 47.476562 -56.734375 46.28125 -59.25 46.28125 -62.21875 C 46.28125 -63.820312 46.738281 -65.535156 47.65625 -67.359375 C 48.90625 -69.878906 49.53125 -71.992188 49.53125 -73.703125 C 49.53125 -75.191406 49.101562 -76.390625 48.25 -77.296875 C 47.394531 -78.210938 46.109375 -78.671875 44.390625 -78.671875 C 43.023438 -78.671875 41.597656 -78.070312 40.109375 -76.875 C 38.617188 -75.675781 37.476562 -74.046875 36.6875 -71.984375 L 26.21875 -42.34375 C 25.539062 -40.164062 25.203125 -38.109375 25.203125 -36.171875 C 25.203125 -31.828125 26.941406 -28.140625 30.421875 -25.109375 C 33.910156 -22.078125 38.625 -20.5625 44.5625 -20.5625 C 48.90625 -20.5625 53.476562 -21.5625 58.28125 -23.5625 C 63.082031 -25.5625 67.679688 -28.789062 72.078125 -33.25 C 76.472656 -37.707031 80.097656 -43.59375 82.953125 -50.90625 Z M 82.953125 -50.90625 "/></g></g></g><g fill="#9999f6" fill-opacity="1"><g transform="translate(389.023409, 183.983272)"><g><path d="M 97.703125 -49.703125 C 98.617188 -52.566406 100.078125 -54.625 102.078125 -55.875 C 104.078125 -57.132812 106.160156 -57.765625 108.328125 -57.765625 C 111.066406 -57.765625 113.519531 -56.960938 115.6875 -55.359375 C 117.863281 -53.765625 118.953125 -51.648438 118.953125 -49.015625 C 118.953125 -48.109375 118.78125 -47.023438 118.4375 -45.765625 C 114.320312 -33.878906 109.632812 -24.625 104.375 -18 C 99.125 -11.375 93.640625 -6.71875 87.921875 -4.03125 C 82.210938 -1.34375 76.617188 0 71.140625 0 C 66.335938 0 61.765625 -0.910156 57.421875 -2.734375 C 53.078125 -4.566406 49.5625 -7.3125 46.875 -10.96875 C 44.195312 -14.625 42.859375 -19.140625 42.859375 -24.515625 C 42.859375 -27.941406 43.539062 -31.710938 44.90625 -35.828125 L 57.421875 -71.640625 C 57.878906 -72.554688 58.109375 -73.585938 58.109375 -74.734375 C 58.109375 -76.335938 57.5625 -77.679688 56.46875 -78.765625 C 55.382812 -79.847656 53.988281 -80.390625 52.28125 -80.390625 C 49.65625 -80.390625 47 -79.300781 44.3125 -77.125 C 41.625 -74.957031 39.363281 -72.21875 37.53125 -68.90625 L 16.796875 -10.28125 C 15.535156 -6.738281 13.734375 -4.140625 11.390625 -2.484375 C 9.054688 -0.828125 6.628906 0 4.109375 0 C 1.253906 0 -1.367188 -1.113281 -3.765625 -3.34375 C -6.171875 -5.570312 -7.375 -8.628906 -7.375 -12.515625 C -7.375 -14.679688 -6.972656 -16.910156 -6.171875 -19.203125 L 34.96875 -135.75 C 36.5625 -140.320312 38.472656 -143.632812 40.703125 -145.6875 C 42.929688 -147.75 45.703125 -148.78125 49.015625 -148.78125 C 51.878906 -148.78125 54.476562 -147.804688 56.8125 -145.859375 C 59.15625 -143.921875 60.328125 -141.125 60.328125 -137.46875 C 60.328125 -136.320312 60.15625 -135.117188 59.8125 -133.859375 C 59.476562 -132.609375 59.082031 -131.296875 58.625 -129.921875 L 47.828125 -98.390625 C 51.253906 -99.867188 54.910156 -100.609375 58.796875 -100.609375 C 63.472656 -100.609375 67.671875 -99.523438 71.390625 -97.359375 C 75.109375 -95.191406 78.050781 -92.273438 80.21875 -88.609375 C 82.382812 -84.953125 83.46875 -80.84375 83.46875 -76.28125 C 83.46875 -74.789062 83.351562 -73.273438 83.125 -71.734375 C 82.90625 -70.191406 82.507812 -68.617188 81.9375 -67.015625 L 67.875 -27.078125 C 67.53125 -26.390625 67.359375 -25.648438 67.359375 -24.859375 C 67.359375 -23.597656 67.84375 -22.535156 68.8125 -21.671875 C 69.789062 -20.816406 71.078125 -20.390625 72.671875 -20.390625 C 76.554688 -20.390625 80.753906 -22.703125 85.265625 -27.328125 C 89.785156 -31.960938 93.929688 -39.421875 97.703125 -49.703125 Z M 97.703125 -49.703125 "/></g></g></g><g fill="#9999f6" fill-opacity="1"><g transform="translate(480.8947, 183.983272)"><g><path d="M 23.484375 -27.9375 C 23.367188 -27.476562 23.222656 -26.960938 23.046875 -26.390625 C 22.878906 -25.828125 22.796875 -25.375 22.796875 -25.03125 C 22.796875 -23.769531 23.253906 -22.679688 24.171875 -21.765625 C 25.085938 -20.847656 26.398438 -20.390625 28.109375 -20.390625 C 32.109375 -20.390625 36.421875 -22.703125 41.046875 -27.328125 C 45.679688 -31.960938 49.941406 -39.421875 53.828125 -49.703125 C 55.078125 -52.898438 56.726562 -55.1875 58.78125 -56.5625 C 60.84375 -57.9375 62.960938 -58.625 65.140625 -58.625 C 67.765625 -58.625 70.101562 -57.738281 72.15625 -55.96875 C 74.21875 -54.195312 75.25 -51.9375 75.25 -49.1875 C 75.25 -48.164062 75.078125 -47.023438 74.734375 -45.765625 C 70.734375 -33.878906 65.960938 -24.625 60.421875 -18 C 54.878906 -11.375 49.132812 -6.71875 43.1875 -4.03125 C 37.25 -1.34375 31.535156 0 26.046875 0 C 21.023438 0 16.367188 -0.941406 12.078125 -2.828125 C 7.796875 -4.710938 4.367188 -7.484375 1.796875 -11.140625 C -0.773438 -14.796875 -2.0625 -19.253906 -2.0625 -24.515625 C -2.0625 -28.054688 -1.375 -31.769531 0 -35.65625 L 35.65625 -137.46875 C 38.28125 -145.007812 42.789062 -148.78125 49.1875 -148.78125 C 51.820312 -148.78125 54.363281 -147.804688 56.8125 -145.859375 C 59.269531 -143.921875 60.5 -141.296875 60.5 -137.984375 C 60.5 -136.148438 60.160156 -134.207031 59.484375 -132.15625 Z M 23.484375 -27.9375 "/></g></g></g><g fill="#9999f6" fill-opacity="1"><g transform="translate(528.715733, 183.983272)"><g><path d="M 86.734375 -48.34375 C 87.535156 -50.96875 89.046875 -52.9375 91.265625 -54.25 C 93.492188 -55.5625 95.8125 -56.21875 98.21875 -56.21875 C 100.84375 -56.21875 103.15625 -55.503906 105.15625 -54.078125 C 107.15625 -52.648438 108.15625 -50.625 108.15625 -48 C 108.15625 -46.851562 107.925781 -45.648438 107.46875 -44.390625 C 103.695312 -33.535156 98.441406 -24.851562 91.703125 -18.34375 C 84.960938 -11.832031 77.535156 -7.144531 69.421875 -4.28125 C 61.304688 -1.425781 53.25 0 45.25 0 C 36.90625 0 29.390625 -1.34375 22.703125 -4.03125 C 16.023438 -6.71875 10.742188 -10.546875 6.859375 -15.515625 C 2.972656 -20.484375 1.03125 -26.335938 1.03125 -33.078125 C 1.03125 -35.023438 1.226562 -37.023438 1.625 -39.078125 C 2.03125 -41.140625 2.570312 -43.195312 3.25 -45.25 L 13.375 -74.5625 C 16.34375 -83.132812 21.195312 -89.617188 27.9375 -94.015625 C 34.675781 -98.410156 41.875 -100.609375 49.53125 -100.609375 C 56.050781 -100.609375 61.707031 -99.351562 66.5 -96.84375 C 71.300781 -94.332031 75.046875 -90.90625 77.734375 -86.5625 C 80.421875 -82.21875 81.765625 -77.300781 81.765625 -71.8125 C 81.765625 -68.957031 81.304688 -65.816406 80.390625 -62.390625 C 78.109375 -54.734375 73.820312 -48.617188 67.53125 -44.046875 C 61.25 -39.472656 54.222656 -37.1875 46.453125 -37.1875 C 43.023438 -37.1875 39.796875 -37.671875 36.765625 -38.640625 C 33.734375 -39.617188 30.960938 -40.851562 28.453125 -42.34375 L 27.078125 -39.078125 C 26.734375 -38.273438 26.503906 -37.472656 26.390625 -36.671875 C 26.273438 -35.878906 26.21875 -35.082031 26.21875 -34.28125 C 26.21875 -30.394531 28.046875 -27.109375 31.703125 -24.421875 C 35.359375 -21.734375 40.332031 -20.390625 46.625 -20.390625 C 51.539062 -20.390625 56.597656 -21.332031 61.796875 -23.21875 C 66.992188 -25.101562 71.816406 -28.101562 76.265625 -32.21875 C 80.722656 -36.332031 84.210938 -41.707031 86.734375 -48.34375 Z M 49.015625 -80.390625 C 47.078125 -80.390625 45.132812 -79.644531 43.1875 -78.15625 C 41.25 -76.675781 39.820312 -74.617188 38.90625 -71.984375 L 35.3125 -61.703125 C 37.707031 -60.335938 40.675781 -59.65625 44.21875 -59.65625 C 46.851562 -59.65625 49.3125 -60.222656 51.59375 -61.359375 C 53.875 -62.503906 55.414062 -64.503906 56.21875 -67.359375 C 56.675781 -68.617188 56.90625 -69.988281 56.90625 -71.46875 C 56.90625 -73.988281 56.191406 -76.101562 54.765625 -77.8125 C 53.335938 -79.53125 51.421875 -80.390625 49.015625 -80.390625 Z M 49.015625 -80.390625 "/></g></g></g><g fill="#9999f6" fill-opacity="1"><g transform="translate(609.960102, 183.983272)"><g><path d="M 95.640625 -49.359375 C 96.554688 -52.222656 98.128906 -54.3125 100.359375 -55.625 C 102.585938 -56.9375 104.84375 -57.59375 107.125 -57.59375 C 109.757812 -57.59375 112.101562 -56.878906 114.15625 -55.453125 C 116.207031 -54.023438 117.234375 -51.9375 117.234375 -49.1875 C 117.234375 -48.050781 116.953125 -46.738281 116.390625 -45.25 C 112.503906 -34.164062 107.929688 -25.304688 102.671875 -18.671875 C 97.410156 -12.046875 91.835938 -7.273438 85.953125 -4.359375 C 80.078125 -1.453125 74.222656 0 68.390625 0 C 63.585938 0 59.070312 -0.910156 54.84375 -2.734375 C 50.625 -4.566406 47.226562 -7.28125 44.65625 -10.875 C 42.082031 -14.476562 40.796875 -18.910156 40.796875 -24.171875 C 40.796875 -25.992188 40.992188 -27.847656 41.390625 -29.734375 C 41.796875 -31.617188 42.335938 -33.535156 43.015625 -35.484375 L 55.53125 -70.796875 C 56.101562 -72.503906 56.390625 -73.929688 56.390625 -75.078125 C 56.390625 -76.671875 55.90625 -77.953125 54.9375 -78.921875 C 53.96875 -79.898438 52.679688 -80.390625 51.078125 -80.390625 C 48.679688 -80.390625 46.082031 -79.359375 43.28125 -77.296875 C 40.476562 -75.242188 37.9375 -72.046875 35.65625 -67.703125 C 33.707031 -62.222656 31.5625 -56.140625 29.21875 -49.453125 C 26.882812 -42.765625 24.546875 -36.109375 22.203125 -29.484375 C 19.859375 -22.859375 17.65625 -16.742188 15.59375 -11.140625 C 14.34375 -7.253906 12.203125 -4.367188 9.171875 -2.484375 C 6.140625 -0.597656 3.140625 0.34375 0.171875 0.34375 C -2.566406 0.34375 -4.992188 -0.453125 -7.109375 -2.046875 C -9.222656 -3.648438 -10.28125 -6.050781 -10.28125 -9.25 C -10.28125 -10.738281 -10.050781 -12.171875 -9.59375 -13.546875 L 19.03125 -93.59375 C 19.9375 -95.988281 21.414062 -97.753906 23.46875 -98.890625 C 25.53125 -100.035156 27.765625 -100.609375 30.171875 -100.609375 C 32.453125 -100.609375 34.5625 -100.207031 36.5 -99.40625 C 38.445312 -98.613281 39.648438 -97.414062 40.109375 -95.8125 C 44.453125 -99.007812 49.9375 -100.609375 56.5625 -100.609375 C 61.132812 -100.609375 65.332031 -99.550781 69.15625 -97.4375 C 72.988281 -95.332031 76.078125 -92.476562 78.421875 -88.875 C 80.765625 -85.269531 81.9375 -81.1875 81.9375 -76.625 C 81.9375 -73.875 81.304688 -70.726562 80.046875 -67.1875 L 66.671875 -29.140625 C 66.097656 -27.191406 65.8125 -25.765625 65.8125 -24.859375 C 65.8125 -21.878906 67.414062 -20.390625 70.625 -20.390625 C 74.625 -20.390625 78.847656 -22.644531 83.296875 -27.15625 C 87.753906 -31.675781 91.867188 -39.078125 95.640625 -49.359375 Z M 95.640625 -49.359375 "/></g></g></g><g fill="#9999f6" fill-opacity="1"><g transform="translate(699.94594, 183.983272)"><g><path d="M 91.015625 -48.515625 C 91.929688 -51.023438 93.332031 -52.820312 95.21875 -53.90625 C 97.101562 -54.988281 99.070312 -55.53125 101.125 -55.53125 C 103.875 -55.53125 106.414062 -54.726562 108.75 -53.125 C 111.09375 -51.53125 112.265625 -49.476562 112.265625 -46.96875 C 112.265625 -46.625 112.265625 -46.25 112.265625 -45.84375 C 112.265625 -45.445312 112.148438 -45.078125 111.921875 -44.734375 C 107.921875 -33.191406 102.4375 -24.078125 95.46875 -17.390625 C 88.5 -10.710938 80.554688 -5.941406 71.640625 -3.078125 C 62.734375 -0.222656 53.304688 1.203125 43.359375 1.203125 C 33.304688 1.203125 24.765625 -0.109375 17.734375 -2.734375 C 10.710938 -5.367188 5.375 -8.941406 1.71875 -13.453125 C -1.9375 -17.960938 -3.765625 -23.019531 -3.765625 -28.625 C -3.765625 -32.28125 -3.132812 -35.992188 -1.875 -39.765625 C -0.625 -43.535156 1.285156 -46.878906 3.859375 -49.796875 C 6.429688 -52.710938 9.601562 -54.625 13.375 -55.53125 C 16.800781 -61.9375 20.285156 -68.421875 23.828125 -74.984375 C 27.367188 -81.554688 30.796875 -88.097656 34.109375 -94.609375 C 35.710938 -97.929688 38.023438 -100.421875 41.046875 -102.078125 C 44.078125 -103.734375 47.191406 -104.5625 50.390625 -104.5625 C 54.734375 -104.5625 58.191406 -103.101562 60.765625 -100.1875 C 63.335938 -97.269531 64.625 -93.984375 64.625 -90.328125 C 64.625 -87.816406 63.796875 -85.332031 62.140625 -82.875 C 60.484375 -80.414062 58.453125 -78.671875 56.046875 -77.640625 C 56.390625 -75.015625 57.300781 -72.273438 58.78125 -69.421875 C 60.269531 -66.566406 61.875 -63.648438 63.59375 -60.671875 C 65.988281 -56.671875 68.269531 -52.359375 70.4375 -47.734375 C 72.613281 -43.109375 73.703125 -38.28125 73.703125 -33.25 C 73.703125 -32.101562 73.644531 -31.015625 73.53125 -29.984375 C 73.414062 -28.960938 73.242188 -27.878906 73.015625 -26.734375 C 77.015625 -29.023438 80.5 -31.96875 83.46875 -35.5625 C 86.445312 -39.164062 88.960938 -43.484375 91.015625 -48.515625 Z M 36.6875 -53.140625 C 38.164062 -51.648438 39.25 -49.960938 39.9375 -48.078125 C 40.625 -46.191406 40.96875 -44.28125 40.96875 -42.34375 C 40.96875 -38.113281 39.59375 -34.253906 36.84375 -30.765625 C 34.101562 -27.285156 30.222656 -25.546875 25.203125 -25.546875 C 24.628906 -25.546875 24 -25.570312 23.3125 -25.625 C 22.625 -25.6875 21.9375 -25.769531 21.25 -25.875 C 22.164062 -23.707031 23.820312 -21.992188 26.21875 -20.734375 C 28.625 -19.484375 31.253906 -18.859375 34.109375 -18.859375 C 38.679688 -19.085938 42.050781 -20.65625 44.21875 -23.5625 C 46.394531 -26.476562 47.484375 -29.9375 47.484375 -33.9375 C 47.484375 -37.9375 46.597656 -41.90625 44.828125 -45.84375 C 43.054688 -49.789062 40.851562 -53.304688 38.21875 -56.390625 Z M 36.6875 -53.140625 "/></g></g></g></g></g></svg>